<svg width="34" height="31" viewBox="0 0 34 31" fill="black" xmlns="http://www.w3.org/2000/svg"><path d="M31.413 0.457031L18.9209 9.73512L21.231 4.26117L31.413 0.457031Z" fill="#E2761B"></path><path fill-rule="evenodd" clip-rule="evenodd" d="M31.468 0.426953C31.4829 0.454422 31.4754 0.4887 31.4503 0.507344L18.9581 9.78543C18.9354 9.80231 18.9042 9.80189 18.8819 9.78441C18.8597 9.76693 18.8518 9.73671 18.8629 9.71063L21.173 4.23668C21.1797 4.22077 21.1926 4.20833 21.2088 4.20229L31.3909 0.398145C31.4202 0.387201 31.453 0.399484 31.468 0.426953ZM21.2781 4.31043L19.068 9.54744L31.0194 0.670945L21.2781 4.31043Z" fill="#E2761B"></path><path d="M2.57422 0.456909L14.9659 9.82288L12.7688 4.26105L2.57422 0.456909Z" fill="#E4761B"></path><path fill-rule="evenodd" clip-rule="evenodd" d="M2.51947 0.426733C2.53448 0.399416 2.56725 0.38724 2.59644 0.398135L12.791 4.20228C12.8077 4.20849 12.821 4.22149 12.8275 4.23803L15.0246 9.79986C15.0349 9.82603 15.0266 9.85588 15.0042 9.8729C14.9818 9.88992 14.9508 9.88997 14.9284 9.873L2.53665 0.507028C2.51178 0.488237 2.50447 0.45405 2.51947 0.426733ZM2.95522 0.666018L14.8257 9.63801L12.721 4.31014L2.95522 0.666018Z" fill="#E4761B"></path><path d="M26.9184 21.9635L23.5913 27.0608L30.71 29.0194L32.7564 22.0765L26.9184 21.9635Z" fill="#E4761B"></path><path fill-rule="evenodd" clip-rule="evenodd" d="M26.8661 21.9292C26.8779 21.9111 26.8982 21.9003 26.9198 21.9008L32.7579 22.0138C32.7775 22.0141 32.7957 22.0236 32.8073 22.0394C32.8189 22.0552 32.8224 22.0755 32.8169 22.0943L30.7704 29.0372C30.7608 29.07 30.7266 29.089 30.6936 29.0799L23.5749 27.1214C23.5556 27.116 23.54 27.1018 23.5329 27.0831C23.5258 27.0643 23.5281 27.0433 23.539 27.0265L26.8661 21.9292ZM26.9522 22.027L23.6912 27.0231L30.6674 28.9425L32.6732 22.1377L26.9522 22.027Z" fill="#E4761B"></path><path d="M1.25635 22.0765L3.29025 29.0194L10.4089 27.0608L7.08183 21.9635L1.25635 22.0765Z" fill="#E4761B"></path><path fill-rule="evenodd" clip-rule="evenodd" d="M7.08041 21.9008C7.10204 21.9003 7.12236 21.9111 7.13419 21.9292L10.4612 27.0265C10.4722 27.0433 10.4745 27.0643 10.4674 27.0831C10.4603 27.1018 10.4447 27.116 10.4253 27.1214L3.30669 29.0799C3.27365 29.089 3.23942 29.0699 3.22979 29.0371L1.19589 22.0942C1.19039 22.0754 1.19396 22.0551 1.20553 22.0394C1.2171 22.0236 1.23536 22.0141 1.25492 22.0138L7.08041 21.9008ZM1.33947 22.1377L3.33292 28.9425L10.3091 27.0231L7.04807 22.027L1.33947 22.1377Z" fill="#E4761B"></path><path d="M10.0071 13.3508L8.02344 16.3514L15.0919 16.6653L14.8408 9.06958L10.0071 13.3508Z" fill="#E4761B"></path><path fill-rule="evenodd" clip-rule="evenodd" d="M14.8654 9.01195C14.8877 9.02157 14.9025 9.04323 14.9033 9.06754L15.1544 16.6633C15.155 16.6807 15.1482 16.6977 15.1358 16.71C15.1233 16.7223 15.1063 16.7288 15.0889 16.728L8.02044 16.4142C7.99785 16.4132 7.97755 16.4001 7.96729 16.38C7.95703 16.3598 7.95839 16.3357 7.97086 16.3168L9.95454 13.3162C9.95756 13.3116 9.96117 13.3075 9.96528 13.3038L14.7989 9.02262C14.8171 9.00649 14.843 9.00233 14.8654 9.01195ZM10.0547 13.3923L8.13669 16.2937L15.0267 16.5996L14.7822 9.20513L10.0547 13.3923Z" fill="#E4761B"></path><path d="M23.9805 13.3508L19.0841 8.98169L18.9209 16.6653L25.9768 16.3514L23.9805 13.3508Z" fill="#E4761B"></path><path fill-rule="evenodd" clip-rule="evenodd" d="M19.0588 8.92416C19.0813 8.91438 19.1074 8.91857 19.1257 8.93488L24.0221 13.304C24.0261 13.3076 24.0296 13.3116 24.0326 13.3161L26.0288 16.3167C26.0414 16.3355 26.0428 16.3597 26.0325 16.3799C26.0223 16.4001 26.002 16.4132 25.9793 16.4142L18.9235 16.728C18.9061 16.7288 18.8892 16.7224 18.8768 16.7102C18.8644 16.6981 18.8576 16.6814 18.8579 16.664L19.0211 8.98039C19.0217 8.95589 19.0364 8.93394 19.0588 8.92416ZM19.1438 9.11927L18.9849 16.5996L25.8627 16.2937L23.9325 13.3923L19.1438 9.11927Z" fill="#E4761B"></path><path d="M10.4087 27.0608L14.6523 24.9892L10.9862 22.1267L10.4087 27.0608Z" fill="#E4761B"></path><path fill-rule="evenodd" clip-rule="evenodd" d="M10.9618 22.0688C10.9827 22.0601 11.0068 22.0633 11.0246 22.0773L14.6907 24.9398C14.7077 24.9531 14.7167 24.9743 14.7145 24.9958C14.7122 25.0173 14.699 25.0362 14.6796 25.0457L10.436 27.1172C10.4154 27.1273 10.3909 27.1253 10.3722 27.112C10.3535 27.0988 10.3435 27.0763 10.3461 27.0535L10.9237 22.1194C10.9263 22.0969 10.9409 22.0776 10.9618 22.0688ZM11.0354 22.2449L10.4842 26.954L14.5342 24.9769L11.0354 22.2449Z" fill="#E4761B"></path><path d="M19.3354 24.9892L23.5916 27.0608L23.0015 22.1267L19.3354 24.9892Z" fill="#E4761B"></path><path fill-rule="evenodd" clip-rule="evenodd" d="M23.0254 22.0688C23.0463 22.0775 23.0609 22.0968 23.0636 22.1193L23.6537 27.0534C23.6564 27.0762 23.6465 27.0986 23.6277 27.112C23.609 27.1253 23.5845 27.1273 23.5639 27.1173L19.3078 25.0457C19.2883 25.0362 19.2751 25.0174 19.2728 24.9958C19.2705 24.9743 19.2795 24.9531 19.2966 24.9398L22.9626 22.0773C22.9805 22.0633 23.0045 22.0601 23.0254 22.0688ZM19.4531 24.9768L23.5153 26.954L22.9522 22.2447L19.4531 24.9768Z" fill="#E4761B"></path><path d="M23.5911 27.0608L19.335 24.9893L19.6739 27.7639L19.6363 28.9315L23.5911 27.0608Z" fill="#D7C1B3"></path><path fill-rule="evenodd" clip-rule="evenodd" d="M19.2988 24.9382C19.3175 24.9248 19.342 24.9228 19.3627 24.9328L23.6188 27.0044C23.6405 27.015 23.6543 27.0371 23.6541 27.0612C23.654 27.0853 23.64 27.1073 23.6182 27.1176L19.6634 28.9883C19.6436 28.9976 19.6204 28.996 19.6021 28.984C19.5838 28.972 19.5731 28.9514 19.5738 28.9295L19.6113 27.7667L19.2729 24.9969C19.2701 24.9741 19.2801 24.9515 19.2988 24.9382ZM19.4115 25.0962L19.7365 27.7563C19.7369 27.7595 19.7371 27.7627 19.737 27.7659L19.7026 28.8308L23.4463 27.06L19.4115 25.0962Z" fill="#D7C1B3"></path><path d="M10.4087 27.0608L14.3635 28.9315L14.3384 27.7639L14.6523 24.9893L10.4087 27.0608Z" fill="#D7C1B3"></path><path fill-rule="evenodd" clip-rule="evenodd" d="M14.6882 24.938C14.707 24.9512 14.717 24.9736 14.7144 24.9963L14.401 27.7668L14.426 28.9302C14.4265 28.9519 14.4157 28.9724 14.3974 28.9842C14.3792 28.996 14.3561 28.9976 14.3364 28.9883L10.3816 27.1176C10.3598 27.1073 10.3459 27.0854 10.3457 27.0612C10.3456 27.0371 10.3593 27.015 10.3809 27.0044L14.6245 24.9329C14.6451 24.9228 14.6695 24.9248 14.6882 24.938ZM10.5534 27.06L14.2983 28.8314L14.2754 27.7653C14.2753 27.7625 14.2755 27.7597 14.2758 27.7569L14.5768 25.0959L10.5534 27.06Z" fill="#D7C1B3"></path><path d="M14.4262 20.2938L10.8857 19.2517L13.3842 18.1093L14.4262 20.2938Z" fill="#233447"></path><path fill-rule="evenodd" clip-rule="evenodd" d="M13.3579 18.0521C13.389 18.0378 13.4259 18.0512 13.4406 18.0821L14.4827 20.2667C14.4934 20.2891 14.4899 20.3156 14.4738 20.3345C14.4577 20.3533 14.4321 20.3609 14.4083 20.3539L10.8678 19.3119C10.8427 19.3045 10.8248 19.2823 10.8229 19.2561C10.821 19.23 10.8356 19.2055 10.8594 19.1946L13.3579 18.0521ZM11.0644 19.2389L14.3088 20.1938L13.3539 18.192L11.0644 19.2389Z" fill="#233447"></path><path d="M19.561 20.2938L20.6031 18.1093L23.1141 19.2517L19.561 20.2938Z" fill="#233447"></path><path fill-rule="evenodd" clip-rule="evenodd" d="M20.5467 18.0821C20.5614 18.0513 20.5982 18.0379 20.6294 18.052L23.1404 19.1945C23.1642 19.2054 23.1788 19.23 23.177 19.2561C23.1751 19.2823 23.1572 19.3045 23.132 19.3119L19.579 20.354C19.5552 20.3609 19.5296 20.3533 19.5135 20.3344C19.4975 20.3156 19.494 20.2891 19.5047 20.2667L20.5467 18.0821ZM20.6335 18.1918L19.6785 20.194L22.9348 19.2389L20.6335 18.1918Z" fill="#233447"></path><path d="M10.4091 27.0609L11.0117 21.9636L7.08203 22.0766L10.4091 27.0609Z" fill="#CD6116"></path><path fill-rule="evenodd" clip-rule="evenodd" d="M11.0578 21.9213C11.0701 21.9347 11.076 21.9529 11.0739 21.971L10.4712 27.0683C10.4681 27.0945 10.4491 27.1159 10.4235 27.122C10.3979 27.1281 10.3713 27.1177 10.3567 27.0958L7.02961 22.1115C7.01693 22.0925 7.01556 22.0681 7.02604 22.0478C7.03652 22.0276 7.05719 22.0146 7.08001 22.0139L11.0097 21.9009C11.0279 21.9004 11.0455 21.9078 11.0578 21.9213ZM7.197 22.1361L10.3665 26.8845L10.9406 22.0285L7.197 22.1361Z" fill="#CD6116"></path><path d="M22.9888 21.9636L23.5914 27.0609L26.9185 22.0766L22.9888 21.9636Z" fill="#CD6116"></path><path fill-rule="evenodd" clip-rule="evenodd" d="M22.9427 21.9213C22.955 21.9078 22.9726 21.9004 22.9908 21.9009L26.9205 22.0139C26.9434 22.0146 26.964 22.0276 26.9745 22.0478C26.985 22.0681 26.9836 22.0925 26.971 22.1115L23.6439 27.0958C23.6293 27.1177 23.6026 27.1281 23.577 27.122C23.5515 27.1159 23.5324 27.0945 23.5293 27.0683L22.9267 21.971C22.9246 21.9529 22.9304 21.9347 22.9427 21.9213ZM23.0599 22.0285L23.634 26.8845L26.8036 22.1361L23.0599 22.0285Z" fill="#CD6116"></path><path d="M25.9768 16.3516L18.9209 16.6654L19.5738 20.2938L20.6158 18.1093L23.1268 19.2517L25.9768 16.3516Z" fill="#CD6116"></path><path fill-rule="evenodd" clip-rule="evenodd" d="M26.0344 16.326C26.0449 16.3496 26.0399 16.3772 26.0218 16.3956L23.1718 19.2958C23.1534 19.3146 23.1251 19.3198 23.1011 19.3089L20.6462 18.192L19.6307 20.3209C19.619 20.3455 19.5927 20.3597 19.5657 20.356C19.5387 20.3524 19.5171 20.3318 19.5122 20.305L18.8594 16.6766C18.8562 16.6588 18.8608 16.6404 18.8721 16.6263C18.8834 16.6121 18.9003 16.6036 18.9184 16.6028L25.9743 16.2889C26 16.2877 26.0239 16.3025 26.0344 16.326ZM18.9957 16.725L19.6013 20.0909L20.5594 18.0823C20.5742 18.0514 20.6109 18.038 20.6421 18.0521L23.1131 19.1764L25.8204 16.4214L18.9957 16.725Z" fill="#CD6116"></path><path d="M10.886 19.2517L13.3969 18.1093L14.4265 20.2938L15.0919 16.6654L8.02344 16.3516L10.886 19.2517Z" fill="#CD6116"></path><path fill-rule="evenodd" clip-rule="evenodd" d="M7.96586 16.3261C7.97635 16.3025 8.00021 16.2877 8.02601 16.2889L15.0944 16.6028C15.1126 16.6036 15.1295 16.6122 15.1408 16.6264C15.1521 16.6406 15.1567 16.6589 15.1534 16.6768L14.488 20.3052C14.4831 20.332 14.4614 20.3526 14.4343 20.3561C14.4073 20.3596 14.3811 20.3453 14.3695 20.3206L13.3664 18.1921L10.9117 19.3089C10.8878 19.3198 10.8596 19.3146 10.8411 19.2959L7.97855 16.3957C7.96041 16.3773 7.95537 16.3497 7.96586 16.3261ZM8.18033 16.4214L10.8996 19.1765L13.3707 18.0521C13.402 18.0379 13.4389 18.0515 13.4535 18.0825L14.3997 20.0903L15.0169 16.725L8.18033 16.4214Z" fill="#CD6116"></path><path d="M8.02344 16.3516L10.9864 22.1268L10.886 19.2517L8.02344 16.3516Z" fill="#E4751F"></path><path fill-rule="evenodd" clip-rule="evenodd" d="M7.98643 16.3007C8.01153 16.2826 8.04614 16.2854 8.06791 16.3075L10.9304 19.2077C10.9415 19.2189 10.9479 19.2339 10.9485 19.2496L11.0489 22.1247C11.05 22.1541 11.0305 22.1802 11.002 22.1876C10.9735 22.195 10.9438 22.1817 10.9303 22.1555L7.96738 16.3802C7.95323 16.3527 7.96132 16.3189 7.98643 16.3007ZM8.26563 16.6865L10.9136 21.8479L10.8239 19.2784L8.26563 16.6865Z" fill="#E4751F"></path><path d="M23.127 19.2517L23.0015 22.1268L25.977 16.3516L23.127 19.2517Z" fill="#E4751F"></path><path fill-rule="evenodd" clip-rule="evenodd" d="M26.0136 16.3007C26.0387 16.3189 26.0468 16.3528 26.0326 16.3803L23.0571 22.1556C23.0436 22.1818 23.0136 22.1951 22.9851 22.1875C22.9566 22.18 22.9373 22.1536 22.9385 22.1241L23.0641 19.249C23.0648 19.2335 23.0712 19.2188 23.082 19.2078L25.932 16.3076C25.9538 16.2855 25.9884 16.2825 26.0136 16.3007ZM23.1885 19.2786L23.0764 21.8439L25.7313 16.6909L23.1885 19.2786Z" fill="#E4751F"></path><path d="M15.0917 16.6655L14.4263 20.2939L15.2549 24.5751L15.4432 18.938L15.0917 16.6655Z" fill="#E4751F"></path><path fill-rule="evenodd" clip-rule="evenodd" d="M15.0923 16.6027C15.123 16.6031 15.1488 16.6256 15.1535 16.6558L15.505 18.9283C15.5056 18.9322 15.5059 18.9361 15.5057 18.94L15.3174 24.5771C15.3164 24.6091 15.2915 24.6351 15.2596 24.6376C15.2278 24.6402 15.1991 24.6183 15.193 24.587L14.3644 20.3057C14.3629 20.2981 14.3629 20.2902 14.3643 20.2825L15.0297 16.6541C15.0352 16.624 15.0617 16.6022 15.0923 16.6027ZM14.4899 20.2935L15.2105 24.0166L15.3801 18.9417L15.0862 17.0421L14.4899 20.2935Z" fill="#E4751F"></path><path d="M18.921 16.6655L18.582 18.9254L18.7327 24.5751L19.5739 20.2939L18.921 16.6655Z" fill="#E4751F"></path><path fill-rule="evenodd" clip-rule="evenodd" d="M18.9199 16.6027C18.9506 16.6022 18.9771 16.6241 18.9826 16.6543L19.6354 20.2827C19.6368 20.2904 19.6368 20.2983 19.6353 20.3059L18.7941 24.5872C18.7879 24.6186 18.7591 24.6403 18.7272 24.6376C18.6953 24.6349 18.6706 24.6087 18.6697 24.5767L18.5191 18.927C18.519 18.9233 18.5192 18.9197 18.5197 18.916L18.8587 16.6561C18.8633 16.6257 18.8892 16.6031 18.9199 16.6027ZM18.9264 17.0512L18.6447 18.9292L18.7801 24.007L19.5098 20.2933L18.9264 17.0512Z" fill="#E4751F"></path><path d="M19.5736 20.2938L18.7324 24.575L19.3351 24.9893L23.0011 22.1268L23.1266 19.2517L19.5736 20.2938Z" fill="#F6851B"></path><path fill-rule="evenodd" clip-rule="evenodd" d="M23.1656 19.2023C23.1816 19.2148 23.1905 19.2342 23.1896 19.2545L23.0641 22.1296C23.0633 22.1479 23.0545 22.165 23.04 22.1763L19.374 25.0388C19.3524 25.0557 19.3223 25.0566 19.2998 25.0411L18.6971 24.6268C18.6765 24.6126 18.6663 24.5875 18.6711 24.5629L19.5123 20.2817C19.5168 20.2587 19.5337 20.2402 19.5562 20.2336L23.1092 19.1915C23.1287 19.1858 23.1497 19.1898 23.1656 19.2023ZM19.6281 20.3433L18.8022 24.5467L19.333 24.9115L22.9399 22.0952L23.0604 19.3367L19.6281 20.3433Z" fill="#F6851B"></path><path d="M10.8857 19.2517L10.9862 22.1268L14.6522 24.9893L15.2549 24.575L14.4262 20.2938L10.8857 19.2517Z" fill="#F6851B"></path><path fill-rule="evenodd" clip-rule="evenodd" d="M10.8471 19.2021C10.863 19.1898 10.8839 19.1858 10.9033 19.1915L14.4437 20.2336C14.4663 20.2402 14.4832 20.2588 14.4877 20.2819L15.3163 24.5631C15.321 24.5876 15.3108 24.6126 15.2902 24.6268L14.6876 25.0411C14.665 25.0566 14.635 25.0557 14.6134 25.0388L10.9473 22.1763C10.9327 22.1649 10.9239 22.1476 10.9232 22.129L10.8228 19.2539C10.8221 19.2338 10.8311 19.2145 10.8471 19.2021ZM10.9513 19.3365L11.0477 22.0954L14.6544 24.9115L15.1852 24.5466L14.3717 20.3432L10.9513 19.3365Z" fill="#F6851B"></path><path d="M19.6366 28.9316L19.6742 27.764L19.3604 27.4878H14.6271L14.3384 27.764L14.3635 28.9316L10.4087 27.0609L11.7897 28.1909L14.5895 30.1369H19.398L22.2103 28.1909L23.5914 27.0609L19.6366 28.9316Z" fill="#C0AD9E"></path><path fill-rule="evenodd" clip-rule="evenodd" d="M10.3554 27.0273C10.3724 27.0005 10.4067 26.9905 10.4353 27.0041L14.2983 28.8314L14.2754 27.7653C14.275 27.7477 14.2821 27.7307 14.2948 27.7185L14.5835 27.4423C14.5952 27.4312 14.6108 27.4249 14.6269 27.4249H19.3601C19.3754 27.4249 19.3902 27.4305 19.4016 27.4406L19.7155 27.7168C19.7296 27.7292 19.7374 27.7472 19.7368 27.7659L19.7024 28.8308L23.5643 27.0041C23.593 26.9905 23.6273 27.0005 23.6442 27.0273C23.6612 27.0541 23.6555 27.0893 23.6309 27.1094L22.2499 28.2394C22.2486 28.2404 22.2472 28.2414 22.2458 28.2424L19.4335 30.1884C19.423 30.1957 19.4106 30.1996 19.3978 30.1996H14.5893C14.5765 30.1996 14.564 30.1956 14.5534 30.1883L11.7537 28.2423C11.7523 28.2414 11.751 28.2404 11.7498 28.2394L10.3687 27.1094C10.3442 27.0893 10.3385 27.0541 10.3554 27.0273ZM10.8447 27.3366L11.8274 28.1406L14.6089 30.074H19.3782L22.1723 28.1406L23.155 27.3366L19.6632 28.9883C19.6434 28.9976 19.6202 28.996 19.6019 28.984C19.5836 28.972 19.5729 28.9514 19.5736 28.9295L19.6103 27.7915L19.3365 27.5505H14.6521L14.4015 27.7902L14.426 28.9302C14.4265 28.9519 14.4157 28.9724 14.3974 28.9842C14.3792 28.996 14.3561 28.9976 14.3364 28.9883L10.8447 27.3366Z" fill="#C0AD9E"></path><path d="M19.3352 24.9894L18.7326 24.5751H15.2549L14.6523 24.9894L14.3384 27.764L14.6271 27.4878H19.3603L19.6742 27.764L19.3352 24.9894Z" fill="#161616"></path><path fill-rule="evenodd" clip-rule="evenodd" d="M15.2191 24.5233C15.2296 24.5161 15.242 24.5122 15.2547 24.5122H18.7324C18.7451 24.5122 18.7575 24.5161 18.768 24.5233L19.3706 24.9376C19.3854 24.9478 19.3952 24.9638 19.3973 24.9817L19.7363 27.7563C19.7395 27.7822 19.7263 27.8073 19.7033 27.8195C19.6803 27.8316 19.6521 27.8283 19.6325 27.8111L19.3365 27.5505H14.6521L14.3816 27.8093C14.3625 27.8276 14.334 27.8319 14.3103 27.8202C14.2866 27.8085 14.2728 27.7831 14.2758 27.7569L14.5897 24.9822C14.5917 24.9642 14.6015 24.9479 14.6165 24.9376L15.2191 24.5233ZM15.2742 24.6378L14.7112 25.0248L14.42 27.5988L14.5835 27.4424C14.5952 27.4312 14.6108 27.425 14.6269 27.425H19.3601C19.3754 27.425 19.3901 27.4305 19.4016 27.4406L19.5917 27.6079L19.2761 25.025L18.7129 24.6378H15.2742Z" fill="#161616"></path><path d="M31.9406 10.3376L33.0078 5.21523L31.4133 0.456909L19.3354 9.42113L23.9808 13.3508L30.547 15.2717L32.0034 13.5768L31.3756 13.1248L32.38 12.2083L31.6016 11.6057L32.606 10.8398L31.9406 10.3376Z" fill="#763D16"></path><path fill-rule="evenodd" clip-rule="evenodd" d="M31.4319 0.397053C31.4511 0.403081 31.4662 0.417931 31.4726 0.436995L33.0671 5.19531C33.0706 5.20587 33.0713 5.21717 33.069 5.22806L32.0099 10.3115L32.6436 10.7898C32.6593 10.8016 32.6685 10.8201 32.6686 10.8397C32.6686 10.8594 32.6595 10.8779 32.6439 10.8898L31.7044 11.6061L32.4182 12.1587C32.4329 12.1701 32.4418 12.1873 32.4425 12.2058C32.4433 12.2243 32.4358 12.2422 32.4221 12.2547L31.4748 13.1191L32.0398 13.5259C32.0541 13.5362 32.0634 13.552 32.0655 13.5694C32.0676 13.5869 32.0622 13.6044 32.0508 13.6178L30.5944 15.3127C30.5783 15.3314 30.5528 15.3389 30.5292 15.332L23.9629 13.4111C23.9545 13.4086 23.9467 13.4044 23.94 13.3988L19.2947 9.46909C19.2801 9.45671 19.2719 9.43832 19.2725 9.41916C19.2731 9.40001 19.2824 9.38218 19.2978 9.37075L31.3757 0.406532C31.3918 0.39455 31.4127 0.391025 31.4319 0.397053ZM19.4362 9.42438L24.0109 13.2943L30.5256 15.2001L31.911 13.5878L31.3387 13.1758C31.3234 13.1648 31.3138 13.1474 31.3127 13.1285C31.3116 13.1096 31.3191 13.0912 31.3331 13.0785L32.2824 12.2123L31.563 11.6554C31.5475 11.6434 31.5386 11.625 31.5386 11.6055C31.5387 11.586 31.5478 11.5676 31.5633 11.5558L32.5019 10.8401L31.9026 10.3878C31.8832 10.3731 31.874 10.3486 31.8789 10.3249L32.9426 5.21909L31.381 0.558897L19.4362 9.42438Z" fill="#763D16"></path><path d="M0.992676 5.21523L2.05985 10.3376L1.38188 10.8398L2.38627 11.6057L1.62042 12.2083L2.62482 13.1248L1.99707 13.5768L3.44089 15.2717L10.0071 13.3508L14.6524 9.42113L2.5746 0.456909L0.992676 5.21523Z" fill="#763D16"></path><path fill-rule="evenodd" clip-rule="evenodd" d="M2.55549 0.397075C2.57469 0.391017 2.59563 0.394534 2.6118 0.406532L14.6896 9.37075C14.705 9.38218 14.7144 9.40001 14.715 9.41916C14.7156 9.43832 14.7074 9.45671 14.6928 9.46909L10.0474 13.3988C10.0407 13.4044 10.0329 13.4086 10.0245 13.4111L3.4583 15.332C3.43455 15.339 3.40893 15.3313 3.39289 15.3125L1.94907 13.6175C1.9377 13.6042 1.93243 13.5867 1.93454 13.5693C1.93665 13.5519 1.94594 13.5361 1.96018 13.5259L2.52516 13.1191L1.5779 12.2547C1.56427 12.2423 1.5568 12.2245 1.55748 12.2061C1.55815 12.1876 1.56689 12.1704 1.58139 12.159L2.28355 11.6065L1.3436 10.8898C1.32791 10.8778 1.31875 10.8592 1.31889 10.8394C1.31903 10.8197 1.32844 10.8012 1.3443 10.7894L1.98998 10.3111L0.931007 5.22806C0.928748 5.21722 0.929398 5.20597 0.932893 5.19546L2.51481 0.437136C2.52117 0.418033 2.53629 0.403134 2.55549 0.397075ZM2.6066 0.559025L1.05737 5.21901L2.12109 10.3249C2.12608 10.3488 2.11668 10.3735 2.097 10.3881L1.48615 10.8406L2.42412 11.5558C2.43956 11.5676 2.44868 11.5858 2.44883 11.6052C2.44898 11.6247 2.44014 11.643 2.42488 11.6551L1.71722 12.2119L2.66692 13.0785C2.68089 13.0912 2.68837 13.1096 2.68727 13.1285C2.68618 13.1474 2.67663 13.1648 2.66128 13.1758L2.08881 13.588L3.46208 15.2001L9.97651 13.2943L14.5512 9.42438L2.6066 0.559025Z" fill="#763D16"></path><path d="M30.547 15.2719L23.9807 13.351L25.977 16.3516L23.0015 22.1268L26.9186 22.0766H32.7566L30.547 15.2719Z" fill="#F6851B"></path><path fill-rule="evenodd" clip-rule="evenodd" d="M23.93 13.3137C23.9456 13.2924 23.9728 13.2832 23.9982 13.2906L30.5644 15.2115C30.5843 15.2173 30.6001 15.2326 30.6065 15.2524L32.8162 22.0572C32.8224 22.0763 32.819 22.0972 32.8072 22.1134C32.7954 22.1297 32.7765 22.1393 32.7565 22.1393H26.9184L23.0021 22.1895C22.98 22.1898 22.9595 22.1785 22.9479 22.1598C22.9363 22.141 22.9354 22.1176 22.9454 22.098L25.9041 16.3555L23.9283 13.3856C23.9137 13.3637 23.9143 13.3349 23.93 13.3137ZM24.1282 13.4595L26.029 16.3167C26.0417 16.3357 26.043 16.36 26.0326 16.3802L23.1049 22.0627L26.9184 22.0138L32.6701 22.0138L30.4973 15.3227L24.1282 13.4595Z" fill="#F6851B"></path><path d="M10.0071 13.351L3.4409 15.2719L1.25635 22.0766H7.08183L10.9864 22.1268L8.02345 16.3516L10.0071 13.351Z" fill="#F6851B"></path><path fill-rule="evenodd" clip-rule="evenodd" d="M10.0574 13.3136C10.0731 13.3348 10.0738 13.3635 10.0593 13.3855L8.09585 16.3555L11.0421 22.0981C11.0521 22.1177 11.0512 22.1411 11.0396 22.1598C11.028 22.1785 11.0074 22.1898 10.9854 22.1895L7.08162 22.1393H1.25613C1.23608 22.1393 1.21723 22.1297 1.20541 22.1135C1.1936 22.0973 1.19023 22.0764 1.19636 22.0574L3.38092 15.2526C3.38729 15.2327 3.40308 15.2174 3.42306 15.2115L9.98929 13.2906C10.0146 13.2832 10.0418 13.2924 10.0574 13.3136ZM3.49028 15.3227L1.34222 22.0138H7.08243L10.8828 22.0626L7.96738 16.3801C7.95704 16.36 7.95837 16.3358 7.97087 16.3169L9.86001 13.4592L3.49028 15.3227Z" fill="#F6851B"></path><path d="M18.921 16.6654L19.3353 9.42118L21.2436 4.26111H12.769L14.6523 9.42118L15.0917 16.6654L15.2424 18.9504L15.2549 24.575H18.7326L18.7577 18.9504L18.921 16.6654Z" fill="#F6851B"></path><path fill-rule="evenodd" clip-rule="evenodd" d="M12.7174 4.22516C12.7291 4.20837 12.7483 4.19836 12.7688 4.19836H21.2434C21.2639 4.19836 21.2832 4.20841 21.2949 4.22527C21.3066 4.24212 21.3094 4.26365 21.3023 4.28291L19.3972 9.43418L18.9834 16.669L18.9834 16.6699L18.8203 18.9528L18.7952 24.5753C18.795 24.6099 18.767 24.6378 18.7324 24.6378H15.2547C15.2201 24.6378 15.192 24.6098 15.1919 24.5752L15.1794 18.9525L15.0289 16.6695L15.0288 16.6692L14.59 9.43414L12.7099 4.28266C12.7028 4.26341 12.7056 4.24195 12.7174 4.22516ZM12.8586 4.32391L14.711 9.39969C14.7131 9.40539 14.7144 9.41136 14.7147 9.41741L15.1541 16.6613L15.1541 16.6616L15.3048 18.9463C15.3049 18.9476 15.3049 18.9489 15.3049 18.9503L15.3173 24.5122H18.6699L18.6947 18.9501C18.6948 18.9487 18.6948 18.9473 18.6949 18.9459L18.8581 16.6618L18.8581 16.6609L19.2724 9.41763C19.2727 9.41141 19.274 9.40528 19.2762 9.39944L21.1532 4.32391H12.8586Z" fill="#F6851B"></path></svg>