<svg width="1822" height="1822" viewBox="0 0 1822 1822" fill="none" xmlns="http://www.w3.org/2000/svg">
<g opacity="0.2">
<path d="M1478 1164.73C1512.44 1180.14 1528.16 1220.77 1509.42 1253.52C1437.24 1379.62 1326.72 1480.25 1193.08 1540.17C1038.57 1609.44 863.978 1619.43 702.575 1568.25C541.172 1517.07 404.246 1408.28 317.895 1262.63C231.544 1116.98 201.806 944.646 234.35 778.479C266.893 612.311 359.443 463.928 494.358 361.612C629.274 259.296 797.121 210.201 965.907 223.685C1134.69 237.168 1292.62 312.288 1409.58 434.726C1510.74 540.626 1575.14 675.52 1594.41 819.527C1599.42 856.925 1569.54 888.623 1531.83 889.905V889.905C1494.12 891.186 1462.94 861.523 1457.02 824.258C1439.48 713.833 1388.75 610.73 1310.78 529.108C1216.99 430.934 1090.36 370.701 955.026 359.889C819.688 349.077 685.103 388.443 576.924 470.483C468.744 552.524 394.535 671.502 368.441 804.74C342.346 937.978 366.191 1076.16 435.43 1192.95C504.669 1309.74 614.46 1396.96 743.879 1438C873.297 1479.04 1013.29 1471.03 1137.18 1415.48C1240.18 1369.31 1326.06 1292.96 1383.96 1197.31C1403.5 1165.03 1443.56 1149.32 1478 1164.73V1164.73Z" fill="url(#paint0_radial_172_261)"/>
<path d="M636.621 1257.78C616.476 1283.17 579.274 1287.64 556.417 1264.66C482.778 1190.64 433.746 1095.04 417.009 990.99C397.151 867.531 424.198 741.11 492.831 636.583C561.465 532.056 666.72 456.987 787.9 426.135C909.081 395.284 1037.42 410.883 1147.68 469.866C1257.94 528.848 1342.15 626.946 1383.74 744.871C1425.34 862.796 1421.31 992.016 1372.46 1107.12C1323.6 1222.23 1233.45 1314.9 1119.73 1366.9C1023.89 1410.73 917.153 1423 814.709 1402.83C782.911 1396.57 765.982 1363.14 775.917 1332.29V1332.29C785.853 1301.45 818.918 1284.98 850.92 1290.09C925.173 1301.97 1001.76 1291.8 1070.92 1260.17C1157.99 1220.35 1227.02 1149.4 1264.43 1061.27C1301.83 973.138 1304.91 874.2 1273.07 783.909C1241.22 693.619 1176.75 618.51 1092.32 573.35C1007.9 528.189 909.638 516.246 816.855 539.867C724.073 563.489 643.483 620.966 590.933 700.998C538.383 781.03 517.675 877.825 532.88 972.353C544.959 1047.45 579.007 1116.79 630.096 1171.97C652.114 1195.75 656.767 1232.39 636.621 1257.78V1257.78Z" fill="url(#paint1_radial_172_261)"/>
<path d="M1061.95 678.598C1078.5 653.194 1112.9 645.718 1135.23 666.224C1182.82 709.927 1216.94 766.88 1232.78 830.344C1253.08 911.683 1241.85 997.69 1201.34 1071.09C1160.84 1144.49 1094.06 1199.84 1014.42 1226.03C934.785 1252.22 848.187 1247.31 772.024 1212.27C695.861 1177.24 635.775 1114.69 603.836 1037.18C571.896 959.665 570.47 872.939 599.842 794.42C629.215 715.9 687.211 651.403 762.18 613.885C820.674 584.612 886.12 573.454 950.276 581.152C980.379 584.764 997.089 615.75 988.57 644.848V644.848C980.051 673.945 949.393 689.883 919.096 688.741C882.068 687.347 844.973 695.228 811.317 712.071C761.146 737.179 722.334 780.342 702.678 832.889C683.021 885.435 683.976 943.474 705.35 995.346C726.725 1047.22 766.935 1089.08 817.905 1112.52C868.875 1135.97 926.828 1139.26 980.123 1121.73C1033.42 1104.2 1078.11 1067.16 1105.21 1018.04C1132.32 968.921 1139.84 911.363 1126.25 856.93C1117.14 820.415 1098.98 787.12 1073.83 759.913C1053.25 737.651 1045.4 704.001 1061.95 678.598V678.598Z" fill="url(#paint2_radial_172_261)"/>
<path d="M781.437 941.186C763.404 945.606 744.832 934.504 744.136 915.95C743.096 888.202 749.041 860.447 761.672 835.317C779.373 800.099 809.047 772.345 845.367 757.034C881.688 741.723 922.276 739.859 959.846 751.777C997.417 763.695 1029.51 788.613 1050.36 822.06C1071.22 855.506 1079.47 895.291 1073.63 934.272C1067.8 973.253 1048.26 1008.88 1018.53 1034.75C988.794 1060.63 950.811 1075.06 911.398 1075.45C883.273 1075.73 855.734 1068.85 831.276 1055.71C814.922 1046.92 813.127 1025.35 825.033 1011.11V1011.11C836.939 996.859 858.124 995.641 875.536 1002.09C886.708 1006.23 898.625 1008.34 910.725 1008.22C934.147 1007.98 956.718 999.406 974.388 984.03C992.057 968.654 1003.67 947.483 1007.14 924.318C1010.6 901.154 1005.7 877.511 993.307 857.635C980.914 837.759 961.843 822.951 939.516 815.869C917.189 808.787 893.07 809.894 871.486 818.993C849.902 828.091 832.268 844.585 821.749 865.513C816.315 876.325 812.963 887.954 811.762 899.807C809.889 918.28 799.471 936.766 781.437 941.186V941.186Z" fill="url(#paint3_radial_172_261)"/>
</g>
<defs>
<radialGradient id="paint0_radial_172_261" cx="0" cy="0" r="1" gradientUnits="userSpaceOnUse" gradientTransform="translate(911 911) rotate(114.108) scale(689.505)">
<stop offset="0.71875" stop-color="white"/>
<stop offset="1" stop-color="#E6E6E6" stop-opacity="0"/>
</radialGradient>
<radialGradient id="paint1_radial_172_261" cx="0" cy="0" r="1" gradientUnits="userSpaceOnUse" gradientTransform="translate(911.458 911.458) rotate(-131.167) scale(500.804)">
<stop offset="0.71875" stop-color="white"/>
<stop offset="1" stop-color="#E6E6E6" stop-opacity="0"/>
</radialGradient>
<radialGradient id="paint2_radial_172_261" cx="0" cy="0" r="1" gradientUnits="userSpaceOnUse" gradientTransform="translate(910.729 910.717) rotate(33.0826) scale(331.927)">
<stop offset="0.71875" stop-color="white"/>
<stop offset="1" stop-color="#E6E6E6" stop-opacity="0"/>
</radialGradient>
<radialGradient id="paint3_radial_172_261" cx="0" cy="0" r="1" gradientUnits="userSpaceOnUse" gradientTransform="translate(909.74 909.74) rotate(-78.9611) scale(165.719)">
<stop offset="0.71875" stop-color="white"/>
<stop offset="1" stop-color="#E6E6E6" stop-opacity="0"/>
</radialGradient>
</defs>
</svg>
