<svg width="2989" height="1057" viewBox="0 0 2989 1057" fill="none" xmlns="http://www.w3.org/2000/svg">
<path d="M1021.69 491.903V433.944H1271.26V491.903H1181.72V729.217H1111.37V491.903H1021.69ZM1283.11 729.217V507.762H1351.6V548.131H1353.91C1357.94 533.522 1364.53 522.66 1373.66 515.548C1382.79 508.339 1393.41 504.734 1405.52 504.734C1408.79 504.734 1412.15 504.975 1415.61 505.455C1419.07 505.84 1422.29 506.465 1425.27 507.33V568.604C1421.91 567.451 1417.49 566.538 1412.01 565.865C1406.63 565.192 1401.82 564.856 1397.59 564.856C1389.23 564.856 1381.68 566.73 1374.96 570.479C1368.32 574.131 1363.08 579.273 1359.24 585.906C1355.49 592.442 1353.62 600.131 1353.62 608.974V729.217H1283.11ZM1454 729.217V507.762H1524.5V729.217H1454ZM1489.32 481.955C1479.42 481.955 1470.92 478.687 1463.8 472.151C1456.69 465.518 1453.13 457.541 1453.13 448.217C1453.13 438.99 1456.69 431.108 1463.8 424.572C1470.92 417.94 1479.42 414.624 1489.32 414.624C1499.32 414.624 1507.83 417.94 1514.84 424.572C1521.95 431.108 1525.51 438.99 1525.51 448.217C1525.51 457.541 1521.95 465.518 1514.84 472.151C1507.83 478.687 1499.32 481.955 1489.32 481.955ZM1672.61 816.876C1651.56 816.876 1633.53 813.944 1618.54 808.081C1603.55 802.218 1591.77 794.192 1583.22 784.004C1574.66 773.815 1569.52 762.281 1567.79 749.401L1634.54 745.653C1635.79 750.17 1638.1 754.111 1641.46 757.475C1644.92 760.839 1649.39 763.434 1654.87 765.261C1660.45 767.087 1666.98 768 1674.48 768C1686.3 768 1696.06 765.117 1703.75 759.349C1711.53 753.679 1715.43 743.73 1715.43 729.505V690.577H1712.98C1710.19 697.402 1705.96 703.505 1700.29 708.888C1694.62 714.27 1687.55 718.5 1679.09 721.575C1670.73 724.651 1661.12 726.189 1650.26 726.189C1634.11 726.189 1619.31 722.44 1605.85 714.943C1592.49 707.35 1581.78 695.624 1573.7 679.764C1565.72 663.809 1561.74 643.288 1561.74 618.201C1561.74 592.345 1565.87 571.055 1574.13 554.331C1582.4 537.51 1593.21 525.063 1606.57 516.989C1620.03 508.916 1634.5 504.879 1649.97 504.879C1661.6 504.879 1671.55 506.897 1679.82 510.934C1688.18 514.875 1695.05 519.969 1700.43 526.217C1705.82 532.464 1709.9 538.952 1712.69 545.68H1714.71V507.762H1784.92V730.082C1784.92 748.825 1780.21 764.636 1770.79 777.516C1761.37 790.395 1748.2 800.151 1731.29 806.783C1714.37 813.512 1694.81 816.876 1672.61 816.876ZM1674.77 674.862C1683.32 674.862 1690.63 672.603 1696.68 668.086C1702.74 663.568 1707.4 657.081 1710.67 648.622C1713.94 640.164 1715.57 630.023 1715.57 618.201C1715.57 606.186 1713.94 595.854 1710.67 587.203C1707.5 578.456 1702.84 571.728 1696.68 567.018C1690.63 562.309 1683.32 559.954 1674.77 559.954C1666.02 559.954 1658.62 562.357 1652.57 567.163C1646.51 571.969 1641.9 578.745 1638.73 587.491C1635.65 596.142 1634.11 606.379 1634.11 618.201C1634.11 630.023 1635.7 640.164 1638.87 648.622C1642.04 657.081 1646.61 663.568 1652.57 668.086C1658.62 672.603 1666.02 674.862 1674.77 674.862ZM1933.1 816.876C1912.05 816.876 1894.03 813.944 1879.03 808.081C1864.04 802.218 1852.26 794.192 1843.71 784.004C1835.15 773.815 1830.01 762.281 1828.28 749.401L1895.03 745.653C1896.28 750.17 1898.59 754.111 1901.95 757.475C1905.42 760.839 1909.88 763.434 1915.36 765.261C1920.94 767.087 1927.47 768 1934.97 768C1946.79 768 1956.55 765.117 1964.24 759.349C1972.02 753.679 1975.92 743.73 1975.92 729.505V690.577H1973.47C1970.68 697.402 1966.45 703.505 1960.78 708.888C1955.11 714.27 1948.04 718.5 1939.58 721.575C1931.22 724.651 1921.61 726.189 1910.75 726.189C1894.6 726.189 1879.8 722.44 1866.34 714.943C1852.98 707.35 1842.27 695.624 1834.19 679.764C1826.21 663.809 1822.23 643.288 1822.23 618.201C1822.23 592.345 1826.36 571.055 1834.62 554.331C1842.89 537.51 1853.7 525.063 1867.06 516.989C1880.52 508.916 1894.99 504.879 1910.46 504.879C1922.09 504.879 1932.04 506.897 1940.31 510.934C1948.67 514.875 1955.54 519.969 1960.92 526.217C1966.31 532.464 1970.39 538.952 1973.18 545.68H1975.2V507.762H2045.41V730.082C2045.41 748.825 2040.7 764.636 2031.28 777.516C2021.86 790.395 2008.69 800.151 1991.78 806.783C1974.86 813.512 1955.3 816.876 1933.1 816.876ZM1935.26 674.862C1943.81 674.862 1951.12 672.603 1957.17 668.086C1963.23 663.568 1967.89 657.081 1971.16 648.622C1974.43 640.164 1976.06 630.023 1976.06 618.201C1976.06 606.186 1974.43 595.854 1971.16 587.203C1967.99 578.456 1963.33 571.728 1957.17 567.018C1951.12 562.309 1943.81 559.954 1935.26 559.954C1926.51 559.954 1919.11 562.357 1913.06 567.163C1907 571.969 1902.39 578.745 1899.22 587.491C1896.14 596.142 1894.6 606.379 1894.6 618.201C1894.6 630.023 1896.19 640.164 1899.36 648.622C1902.53 657.081 1907.1 663.568 1913.06 668.086C1919.11 672.603 1926.51 674.862 1935.26 674.862ZM2193.59 816.876C2172.54 816.876 2154.52 813.944 2139.52 808.081C2124.53 802.218 2112.75 794.192 2104.2 784.004C2095.64 773.815 2090.5 762.281 2088.77 749.401L2155.52 745.653C2156.77 750.17 2159.08 754.111 2162.45 757.475C2165.91 760.839 2170.37 763.434 2175.85 765.261C2181.43 767.087 2187.96 768 2195.46 768C2207.28 768 2217.04 765.117 2224.73 759.349C2232.51 753.679 2236.41 743.73 2236.41 729.505V690.577H2233.96C2231.17 697.402 2226.94 703.505 2221.27 708.888C2215.6 714.27 2208.53 718.5 2200.08 721.575C2191.71 724.651 2182.1 726.189 2171.24 726.189C2155.09 726.189 2140.29 722.44 2126.83 714.943C2113.47 707.35 2102.76 695.624 2094.68 679.764C2086.7 663.809 2082.72 643.288 2082.72 618.201C2082.72 592.345 2086.85 571.055 2095.11 554.331C2103.38 537.51 2114.19 525.063 2127.55 516.989C2141.01 508.916 2155.48 504.879 2170.95 504.879C2182.58 504.879 2192.53 506.897 2200.8 510.934C2209.16 514.875 2216.03 519.969 2221.41 526.217C2226.8 532.464 2230.88 538.952 2233.67 545.68H2235.69V507.762H2305.9V730.082C2305.9 748.825 2301.19 764.636 2291.77 777.516C2282.35 790.395 2269.18 800.151 2252.27 806.783C2235.35 813.512 2215.79 816.876 2193.59 816.876ZM2195.75 674.862C2204.3 674.862 2211.61 672.603 2217.66 668.086C2223.72 663.568 2228.38 657.081 2231.65 648.622C2234.92 640.164 2236.55 630.023 2236.55 618.201C2236.55 606.186 2234.92 595.854 2231.65 587.203C2228.48 578.456 2223.82 571.728 2217.66 567.018C2211.61 562.309 2204.3 559.954 2195.75 559.954C2187 559.954 2179.6 562.357 2173.55 567.163C2167.49 571.969 2162.88 578.745 2159.71 587.491C2156.63 596.142 2155.09 606.379 2155.09 618.201C2155.09 630.023 2156.68 640.164 2159.85 648.622C2163.02 657.081 2167.59 663.568 2173.55 668.086C2179.6 672.603 2187 674.862 2195.75 674.862ZM2454.37 733.398C2431.2 733.398 2411.21 728.832 2394.39 719.701C2377.66 710.474 2364.78 697.354 2355.75 680.341C2346.81 663.232 2342.34 642.903 2342.34 619.354C2342.34 596.478 2346.86 576.486 2355.89 559.377C2364.93 542.172 2377.66 528.812 2394.1 519.296C2410.54 509.684 2429.9 504.879 2452.2 504.879C2467.97 504.879 2482.38 507.33 2495.46 512.232C2508.53 517.134 2519.82 524.39 2529.34 534.002C2538.85 543.614 2546.25 555.484 2551.54 569.614C2556.83 583.647 2559.47 599.746 2559.47 617.913V635.502H2367V594.556H2493.87C2493.77 587.059 2492 580.379 2488.54 574.516C2485.08 568.652 2480.32 564.087 2474.26 560.819C2468.3 557.455 2461.43 555.773 2453.64 555.773C2445.76 555.773 2438.7 557.551 2432.45 561.107C2426.2 564.567 2421.25 569.325 2417.6 575.381C2413.95 581.34 2412.03 588.116 2411.83 595.71V637.376C2411.83 646.411 2413.61 654.341 2417.17 661.166C2420.72 667.894 2425.77 673.132 2432.31 676.881C2438.84 680.629 2446.63 682.504 2455.66 682.504C2461.91 682.504 2467.58 681.639 2472.68 679.908C2477.77 678.178 2482.14 675.631 2485.8 672.267C2489.45 668.903 2492.19 664.77 2494.01 659.868L2558.75 661.742C2556.06 676.256 2550.15 688.895 2541.02 699.661C2531.98 710.33 2520.11 718.644 2505.4 724.603C2490.7 730.466 2473.69 733.398 2454.37 733.398ZM2595.48 729.217V507.762H2663.96V548.131H2666.27C2670.31 533.522 2676.89 522.66 2686.02 515.548C2695.15 508.339 2705.77 504.734 2717.88 504.734C2721.15 504.734 2724.52 504.975 2727.98 505.455C2731.44 505.84 2734.66 506.465 2737.64 507.33V568.604C2734.27 567.451 2729.85 566.538 2724.37 565.865C2718.99 565.192 2714.18 564.856 2709.95 564.856C2701.59 564.856 2694.05 566.73 2687.32 570.479C2680.69 574.131 2675.45 579.273 2671.6 585.906C2667.85 592.442 2665.98 600.131 2665.98 608.974V729.217H2595.48Z" fill="white"/>
<path d="M532.884 290.18C540.064 287.566 547.936 287.566 555.116 290.18L721.274 350.656C728.454 353.27 734.484 358.329 738.305 364.946L826.716 518.079C830.536 524.696 831.903 532.448 830.576 539.973L799.871 714.109C798.544 721.633 794.609 728.45 788.756 733.362L653.302 847.021C647.449 851.932 640.052 854.624 632.411 854.624H455.589C447.948 854.624 440.551 851.932 434.698 847.021L299.244 733.362L295.066 738.341L299.244 733.362C293.391 728.45 289.456 721.633 288.129 714.109L257.424 539.973C256.097 532.448 257.464 524.696 261.284 518.079L349.695 364.946C353.516 358.329 359.546 353.27 366.726 350.656L532.884 290.18Z" fill="#1A1A1A" stroke="white" stroke-width="13"/>
<path d="M898.972 140L808.763 309.102L799.753 326.023L818.542 322.397L857.219 314.925L776.569 443.812L766.24 460.293L785.469 457.766L812.059 454.25L606.039 685.872L687.458 536.219L696.028 520.506L678.338 522.814L644.606 527.099L727.124 390.521L737.672 373.16L717.674 376.896L691.633 381.731L898.972 140Z" fill="#FFA835"/>
<path d="M573.884 327.18C581.064 324.566 588.936 324.566 596.116 327.18L762.274 387.656C769.454 390.27 775.484 395.329 779.305 401.946L867.716 555.079C871.536 561.696 872.903 569.448 871.576 576.973L840.871 751.109C839.544 758.633 835.609 765.45 829.756 770.362L694.302 884.021C688.449 888.932 681.052 891.624 673.411 891.624H496.589C488.948 891.624 481.551 888.932 475.698 884.021L340.244 770.362L336.066 775.341L340.244 770.362C334.391 765.45 330.456 758.633 329.129 751.109L298.424 576.973C297.097 569.448 298.464 561.696 302.284 555.079L390.695 401.946C394.516 395.329 400.546 390.27 407.726 387.656L573.884 327.18Z" fill="#1A1A1A" stroke="white" stroke-width="13"/>
<path d="M774.964 698.329C786.381 703.439 791.59 716.907 785.377 727.763C761.452 769.565 724.812 802.925 680.51 822.787C629.291 845.751 571.412 849.065 517.907 832.097C464.401 815.13 419.009 779.067 390.384 730.783C361.758 682.499 351.9 625.37 362.688 570.285C373.476 515.2 404.157 466.011 448.882 432.092C493.607 398.174 549.249 381.899 605.202 386.369C661.156 390.839 713.508 415.741 752.281 456.33C785.817 491.436 807.165 536.154 813.554 583.893C815.213 596.291 805.308 606.799 792.807 607.223C780.306 607.648 769.971 597.815 768.008 585.461C762.193 548.855 745.375 514.676 719.527 487.618C688.438 455.073 646.46 435.105 601.595 431.521C556.73 427.937 512.114 440.987 476.253 468.184C440.391 495.38 415.79 534.822 407.14 578.991C398.489 623.16 406.394 668.968 429.347 707.683C452.3 746.399 488.696 775.315 531.599 788.92C574.501 802.525 620.91 799.868 661.98 781.455C696.125 766.147 724.594 740.837 743.788 709.129C750.265 698.429 763.547 693.22 774.964 698.329Z" fill="url(#paint0_radial_75_87)"/>
<path d="M496.042 729.176C489.364 737.591 477.032 739.073 469.455 731.457C445.043 706.919 428.788 675.227 423.24 640.734C416.657 599.807 425.623 557.897 448.376 523.246C471.128 488.595 506.02 463.709 546.192 453.482C586.364 443.255 628.908 448.426 665.46 467.979C702.012 487.532 729.927 520.052 743.716 559.144C757.505 598.237 756.171 641.074 739.975 679.232C723.779 717.391 693.894 748.11 656.196 765.349C624.424 779.878 589.04 783.947 555.079 777.26C544.538 775.184 538.926 764.103 542.22 753.877C545.513 743.651 556.474 738.192 567.083 739.888C591.699 743.824 617.086 740.454 640.016 729.968C668.88 716.768 691.762 693.248 704.162 664.032C716.562 634.816 717.584 602.017 707.027 572.086C696.469 542.154 675.096 517.255 647.109 502.284C619.123 487.313 586.548 483.354 555.791 491.185C525.033 499.015 498.317 518.069 480.897 544.6C463.476 571.131 456.611 603.219 461.652 634.555C465.656 659.449 476.943 682.437 493.879 700.729C501.178 708.612 502.721 720.76 496.042 729.176Z" fill="url(#paint1_radial_75_87)"/>
<path d="M637.035 537.174C642.521 528.753 653.925 526.275 661.328 533.073C677.106 547.56 688.416 566.44 693.667 587.479C700.396 614.443 696.673 642.955 683.246 667.287C669.818 691.619 647.681 709.969 621.281 718.651C594.881 727.333 566.173 725.703 540.925 714.09C515.676 702.477 495.758 681.74 485.17 656.044C474.581 630.349 474.109 601.599 483.846 575.57C493.583 549.54 512.809 528.159 537.661 515.722C557.052 506.018 578.748 502.319 600.016 504.871C609.995 506.068 615.535 516.34 612.711 525.986C609.886 535.632 599.723 540.915 589.679 540.537C577.405 540.075 565.108 542.687 553.951 548.271C537.319 556.594 524.452 570.903 517.936 588.322C511.42 605.742 511.736 624.982 518.822 642.178C525.908 659.373 539.238 673.251 556.134 681.023C573.031 688.795 592.243 689.885 609.91 684.075C627.578 678.265 642.392 665.985 651.378 649.701C660.364 633.418 662.856 614.337 658.352 596.292C655.331 584.187 649.313 573.15 640.974 564.131C634.151 556.751 631.548 545.596 637.035 537.174Z" fill="url(#paint2_radial_75_87)"/>
<path d="M544.049 624.224C538.071 625.689 531.915 622.009 531.684 615.858C531.339 606.659 533.31 597.458 537.497 589.127C543.365 577.453 553.202 568.252 565.243 563.176C577.283 558.101 590.738 557.483 603.193 561.434C615.648 565.384 626.286 573.645 633.2 584.733C640.113 595.82 642.848 609.009 640.914 621.932C638.979 634.854 632.503 646.664 622.646 655.241C612.789 663.819 600.198 668.602 587.132 668.733C577.808 668.826 568.679 666.546 560.571 662.188C555.15 659.274 554.555 652.126 558.502 647.402C562.449 642.679 569.471 642.276 575.243 644.413C578.947 645.785 582.898 646.484 586.909 646.444C594.673 646.366 602.156 643.524 608.013 638.427C613.871 633.329 617.72 626.311 618.869 618.632C620.019 610.953 618.393 603.115 614.285 596.526C610.177 589.937 603.855 585.028 596.453 582.68C589.052 580.333 581.056 580.7 573.901 583.716C566.746 586.732 560.9 592.2 557.413 599.138C555.612 602.722 554.5 606.577 554.102 610.506C553.481 616.63 550.028 622.758 544.049 624.224Z" fill="url(#paint3_radial_75_87)"/>
<defs>
<radialGradient id="paint0_radial_75_87" cx="0" cy="0" r="1" gradientUnits="userSpaceOnUse" gradientTransform="translate(587 614.217) rotate(114.108) scale(228.574)">
<stop offset="0.703125" stop-color="white"/>
<stop offset="1" stop-color="#F5F5F5" stop-opacity="0"/>
</radialGradient>
<radialGradient id="paint1_radial_75_87" cx="0" cy="0" r="1" gradientUnits="userSpaceOnUse" gradientTransform="translate(587.152 614.369) rotate(-131.167) scale(166.019)">
<stop offset="0.703125" stop-color="white"/>
<stop offset="1" stop-color="#F5F5F5" stop-opacity="0"/>
</radialGradient>
<radialGradient id="paint2_radial_75_87" cx="0" cy="0" r="1" gradientUnits="userSpaceOnUse" gradientTransform="translate(586.906 614.123) rotate(33.0826) scale(110.035)">
<stop offset="0.703125" stop-color="white"/>
<stop offset="1" stop-color="#F5F5F5" stop-opacity="0"/>
</radialGradient>
<radialGradient id="paint3_radial_75_87" cx="0" cy="0" r="1" gradientUnits="userSpaceOnUse" gradientTransform="translate(586.582 613.799) rotate(-78.9611) scale(54.9367)">
<stop offset="0.703125" stop-color="white"/>
<stop offset="1" stop-color="#F5F5F5" stop-opacity="0"/>
</radialGradient>
</defs>
</svg>
