<svg width="931" height="972" viewBox="0 0 931 972" fill="none" xmlns="http://www.w3.org/2000/svg">
<path d="M449.116 248.18L615.274 308.656C622.454 311.27 628.484 316.329 632.305 322.946L720.716 476.079C724.536 482.696 725.903 490.448 724.576 497.973L693.871 672.109C692.544 679.634 688.609 686.45 682.756 691.362L547.302 805.021C541.449 809.932 534.052 812.624 526.411 812.624H349.589C341.948 812.624 334.551 809.932 328.698 805.021L193.244 691.362C187.391 686.45 183.456 679.634 182.129 672.109L151.424 497.973C150.097 490.448 151.464 482.696 155.284 476.079L243.695 322.946C247.516 316.329 253.546 311.27 260.726 308.656L426.884 248.18C434.064 245.566 441.936 245.566 449.116 248.18Z" fill="#1A1A1A" stroke="white" stroke-width="13"/>
<path d="M792.972 98L702.763 267.102L693.753 284.023L712.542 280.397L751.219 272.925L670.569 401.812L660.24 418.293L679.469 415.766L706.059 412.25L500.039 643.872L581.458 494.219L590.028 478.506L572.338 480.814L538.606 485.099L621.124 348.521L631.672 331.16L611.674 334.896L585.633 339.731L792.972 98Z" fill="#FFA835"/>
<path d="M490.116 285.18L656.274 345.656C663.454 348.27 669.484 353.329 673.305 359.946L761.716 513.079C765.536 519.696 766.903 527.448 765.576 534.973L734.871 709.109C733.544 716.634 729.609 723.45 723.756 728.362L588.302 842.021C582.449 846.932 575.052 849.624 567.411 849.624H390.589C382.948 849.624 375.551 846.932 369.698 842.021L234.244 728.362C228.391 723.45 224.456 716.634 223.129 709.109L192.424 534.973C191.097 527.448 192.464 519.696 196.284 513.079L284.695 359.946C288.516 353.329 294.546 348.27 301.726 345.656L467.884 285.18C475.064 282.566 482.936 282.566 490.116 285.18Z" fill="#1A1A1A" stroke="white" stroke-width="13"/>
<path d="M668.964 656.33C680.381 661.439 685.59 674.907 679.377 685.763C655.452 727.565 618.812 760.925 574.51 780.787C523.291 803.751 465.412 807.065 411.907 790.097C358.401 773.13 313.009 737.067 284.384 688.783C255.758 640.5 245.9 583.371 256.688 528.285C267.476 473.2 298.157 424.011 342.882 390.092C387.607 356.174 443.249 339.899 499.202 344.369C555.156 348.839 607.508 373.741 646.281 414.33C679.817 449.436 701.165 494.154 707.554 541.893C709.213 554.291 699.308 564.799 686.807 565.224V565.224C674.306 565.648 663.971 555.815 662.008 543.461C656.193 506.855 639.375 472.676 613.527 445.618C582.438 413.073 540.46 393.105 495.595 389.521C450.73 385.937 406.114 398.987 370.253 426.184C334.391 453.38 309.79 492.822 301.14 536.991C292.489 581.16 300.394 626.968 323.347 665.684C346.3 704.399 382.696 733.315 425.599 746.92C468.501 760.525 514.91 757.868 555.98 739.455C590.125 724.147 618.594 698.837 637.788 667.129C644.265 656.429 657.547 651.22 668.964 656.33V656.33Z" fill="url(#paint0_radial_172_249)"/>
<path d="M390.042 687.176C383.364 695.591 371.032 697.073 363.455 689.457C339.043 664.919 322.788 633.227 317.24 598.734C310.657 557.807 319.623 515.897 342.376 481.246C365.128 446.595 400.02 421.709 440.192 411.482C480.364 401.255 522.908 406.426 559.46 425.979C596.012 445.532 623.927 478.052 637.716 517.144C651.505 556.237 650.171 599.074 633.975 637.232C617.779 675.39 587.894 706.11 550.196 723.349C518.424 737.878 483.04 741.947 449.079 735.26C438.538 733.184 432.926 722.103 436.22 711.877V711.877C439.513 701.651 450.474 696.192 461.083 697.888C485.699 701.824 511.086 698.454 534.016 687.968C562.88 674.768 585.762 651.248 598.162 622.032C610.562 592.816 611.584 560.017 601.027 530.086C590.469 500.154 569.096 475.255 541.109 460.284C513.123 445.313 480.548 441.354 449.791 449.185C419.033 457.015 392.317 476.069 374.897 502.6C357.476 529.131 350.611 561.219 355.652 592.555C359.656 617.449 370.943 640.437 387.879 658.729C395.178 666.612 396.721 678.76 390.042 687.176V687.176Z" fill="url(#paint1_radial_172_249)"/>
<path d="M531.035 495.174C536.521 486.753 547.925 484.275 555.328 491.073C571.106 505.56 582.416 524.441 587.667 545.479C594.396 572.443 590.673 600.955 577.246 625.287C563.818 649.619 541.681 667.969 515.281 676.651C488.881 685.333 460.173 683.703 434.925 672.09C409.676 660.477 389.758 639.74 379.17 614.045C368.581 588.349 368.109 559.599 377.846 533.57C387.583 507.54 406.809 486.159 431.661 473.722C451.052 464.018 472.748 460.319 494.016 462.871C503.995 464.068 509.535 474.34 506.711 483.986V483.986C503.886 493.632 493.723 498.915 483.679 498.537C471.405 498.075 459.108 500.688 447.951 506.271C431.319 514.594 418.452 528.903 411.936 546.322C405.42 563.742 405.736 582.982 412.822 600.178C419.908 617.373 433.238 631.251 450.134 639.023C467.031 646.795 486.243 647.885 503.91 642.075C521.578 636.265 536.392 623.985 545.378 607.701C554.364 591.418 556.856 572.337 552.352 554.292C549.331 542.187 543.313 531.15 534.974 522.131C528.151 514.751 525.548 503.596 531.035 495.174V495.174Z" fill="url(#paint2_radial_172_249)"/>
<path d="M438.049 582.224C432.071 583.689 425.915 580.009 425.684 573.858C425.339 564.659 427.31 555.458 431.497 547.127C437.365 535.453 447.202 526.252 459.243 521.176C471.283 516.101 484.738 515.483 497.193 519.434C509.648 523.384 520.286 531.645 527.2 542.733C534.113 553.82 536.848 567.009 534.914 579.932C532.979 592.854 526.503 604.664 516.646 613.241C506.789 621.819 494.198 626.602 481.132 626.733C471.808 626.826 462.679 624.546 454.571 620.188C449.15 617.274 448.555 610.126 452.502 605.402V605.402C456.449 600.679 463.471 600.276 469.243 602.413C472.947 603.785 476.898 604.484 480.909 604.444C488.673 604.366 496.156 601.524 502.013 596.427C507.871 591.329 511.72 584.311 512.869 576.632C514.019 568.953 512.393 561.115 508.285 554.526C504.177 547.937 497.855 543.028 490.453 540.68C483.052 538.333 475.056 538.7 467.901 541.716C460.746 544.732 454.9 550.2 451.413 557.138C449.612 560.722 448.5 564.577 448.102 568.506C447.481 574.63 444.028 580.758 438.049 582.224V582.224Z" fill="url(#paint3_radial_172_249)"/>
<defs>
<radialGradient id="paint0_radial_172_249" cx="0" cy="0" r="1" gradientUnits="userSpaceOnUse" gradientTransform="translate(481 572.217) rotate(114.108) scale(228.574)">
<stop offset="0.703125" stop-color="white"/>
<stop offset="1" stop-color="#F5F5F5" stop-opacity="0"/>
</radialGradient>
<radialGradient id="paint1_radial_172_249" cx="0" cy="0" r="1" gradientUnits="userSpaceOnUse" gradientTransform="translate(481.152 572.369) rotate(-131.167) scale(166.019)">
<stop offset="0.703125" stop-color="white"/>
<stop offset="1" stop-color="#F5F5F5" stop-opacity="0"/>
</radialGradient>
<radialGradient id="paint2_radial_172_249" cx="0" cy="0" r="1" gradientUnits="userSpaceOnUse" gradientTransform="translate(480.906 572.123) rotate(33.0826) scale(110.035)">
<stop offset="0.703125" stop-color="white"/>
<stop offset="1" stop-color="#F5F5F5" stop-opacity="0"/>
</radialGradient>
<radialGradient id="paint3_radial_172_249" cx="0" cy="0" r="1" gradientUnits="userSpaceOnUse" gradientTransform="translate(480.582 571.799) rotate(-78.9611) scale(54.9367)">
<stop offset="0.703125" stop-color="white"/>
<stop offset="1" stop-color="#F5F5F5" stop-opacity="0"/>
</radialGradient>
</defs>
</svg>
