<svg width="41" height="35" viewBox="0 0 41 35" fill="none" xmlns="http://www.w3.org/2000/svg">
<path d="M40.2481 17.7646C40.1599 15.3843 38.1612 13.5256 35.7731 13.6064C34.715 13.6431 33.7083 14.0766 32.944 14.8039C29.5786 12.5117 25.6253 11.2554 21.5618 11.1673L23.4796 1.94714L29.8064 3.27689C29.9827 4.90052 31.4377 6.07599 33.0616 5.89967C34.6856 5.72335 35.8613 4.2687 35.6849 2.64508C35.5086 1.02145 34.0536 -0.154022 32.4297 0.022299C31.4965 0.117806 30.6588 0.661463 30.1958 1.4696L22.9506 0.022299C22.4583 -0.0879017 21.9659 0.22066 21.8557 0.720237C21.8557 0.727583 21.8557 0.727583 21.8557 0.73493L19.6733 10.9909C15.5583 11.0571 11.5536 12.3207 8.14407 14.6276C6.4099 12.9966 3.67639 13.0774 2.04511 14.8186C0.413819 16.5524 0.494649 19.2854 2.23616 20.9163C2.57417 21.2323 2.96362 21.5041 3.39716 21.6951C3.36777 22.1286 3.36777 22.562 3.39716 22.9955C3.39716 29.6149 11.1127 35 20.6286 35C30.1444 35 37.86 29.6222 37.86 22.9955C37.8894 22.562 37.8894 22.1286 37.86 21.6951C39.3443 20.9531 40.2775 19.425 40.2481 17.7646ZM10.6865 20.7253C10.6865 19.0944 12.0165 17.7646 13.6478 17.7646C15.2791 17.7646 16.6091 19.0944 16.6091 20.7253C16.6091 22.3563 15.2791 23.6861 13.6478 23.6861C12.0092 23.6714 10.6865 22.3563 10.6865 20.7253ZM27.8591 28.8508C25.7576 30.4303 23.1857 31.2385 20.5551 31.1283C17.9244 31.2385 15.3526 30.4303 13.251 28.8508C12.9718 28.5129 13.0232 28.0059 13.3612 27.7268C13.6552 27.4843 14.074 27.4843 14.3753 27.7268C16.1535 29.0271 18.3212 29.6883 20.5257 29.5855C22.7301 29.703 24.9052 29.0712 26.7055 27.7855C27.0288 27.4696 27.5579 27.477 27.8738 27.8002C28.1898 28.1235 28.1825 28.6524 27.8591 28.9683V28.8508ZM27.3301 23.7889C25.6988 23.7889 24.3688 22.4592 24.3688 20.8282C24.3688 19.1972 25.6988 17.8675 27.3301 17.8675C28.9614 17.8675 30.2914 19.1972 30.2914 20.8282C30.3575 22.4592 29.0863 23.833 27.455 23.8991C27.4035 23.8991 27.3595 23.8991 27.308 23.8991L27.3301 23.7889Z" fill="white"/>
</svg>
