<svg width="45" height="35" viewBox="0 0 45 35" fill="none" xmlns="http://www.w3.org/2000/svg">
<path d="M38.0287 2.93124C35.1308 1.56187 32.0323 0.566675 28.7929 0C28.395 0.726458 27.9302 1.70356 27.6098 2.48084C24.1661 1.9578 20.7542 1.9578 17.3739 2.48084C17.0535 1.70356 16.5782 0.726458 16.1768 0C12.9338 0.566675 9.83172 1.56553 6.93384 2.93849C1.0888 11.8592 -0.495698 20.5584 0.296551 29.134C4.17329 32.0579 7.93032 33.8341 11.6239 34.9964C12.5359 33.7287 13.3493 32.3812 14.05 30.961C12.7155 30.4489 11.4373 29.8169 10.2296 29.0832C10.55 28.8434 10.8634 28.5928 11.1662 28.3349C18.5323 31.8146 26.5358 31.8146 33.814 28.3349C34.1203 28.5928 34.4337 28.8434 34.7506 29.0832C33.5393 29.8205 32.2576 30.4525 30.9232 30.9647C31.6238 32.3812 32.4337 33.7324 33.3492 35C37.0464 33.8377 40.8069 32.0616 44.6836 29.134C45.6132 19.1926 43.0956 10.5734 38.0287 2.93124ZM15.0535 23.8601C12.8423 23.8601 11.0289 21.7751 11.0289 19.2362C11.0289 16.6973 12.8035 14.6088 15.0535 14.6088C17.3035 14.6088 19.1169 16.6937 19.0781 19.2362C19.0816 21.7751 17.3035 23.8601 15.0535 23.8601ZM29.9267 23.8601C27.7154 23.8601 25.902 21.7751 25.902 19.2362C25.902 16.6973 27.6767 14.6088 29.9267 14.6088C32.1766 14.6088 33.99 16.6937 33.9513 19.2362C33.9513 21.7751 32.1766 23.8601 29.9267 23.8601Z" fill="white"/>
</svg>
