<svg width="41" height="35" viewBox="0 0 41 35" fill="none" xmlns="http://www.w3.org/2000/svg">
<path d="M11.7505 19.4608L15.6153 30.1582C15.6153 30.1582 16.0985 31.1591 16.6159 31.1591C17.1334 31.1591 24.8291 23.153 24.8291 23.153L33.387 6.62354L11.8884 16.6995L11.7505 19.4608Z" fill="#C8DAEA"/>
<path d="M16.875 22.2041L16.1331 30.0891C16.1331 30.0891 15.8226 32.5051 18.238 30.0891C20.6535 27.673 22.9656 25.81 22.9656 25.81" fill="#A9C6D8"/>
<path d="M11.8205 19.8425L3.87041 17.2522C3.87041 17.2522 2.92028 16.8667 3.22622 15.9926C3.2892 15.8124 3.41625 15.659 3.7963 15.3954C5.55783 14.1676 36.4008 3.08176 36.4008 3.08176C36.4008 3.08176 37.2717 2.78831 37.7853 2.98349C37.9124 3.02282 38.0267 3.0952 38.1166 3.19322C38.2065 3.29124 38.2688 3.41138 38.297 3.54135C38.3525 3.77092 38.3757 4.00711 38.366 4.24309C38.3635 4.44723 38.3388 4.63644 38.3201 4.93315C38.1322 7.96405 32.5107 30.5847 32.5107 30.5847C32.5107 30.5847 32.1744 31.9083 30.9694 31.9537C30.6732 31.9632 30.3782 31.9131 30.1019 31.8062C29.8255 31.6993 29.5735 31.5378 29.3609 31.3315C26.9962 29.2974 18.823 23.8046 17.0169 22.5965C16.9762 22.5688 16.9419 22.5326 16.9163 22.4905C16.8907 22.4483 16.8745 22.4012 16.8687 22.3522C16.8434 22.2249 16.9819 22.0672 16.9819 22.0672C16.9819 22.0672 31.2137 9.41693 31.5924 8.08893C31.6217 7.98604 31.5109 7.93528 31.3622 7.98034C30.4169 8.32809 14.0308 18.676 12.2223 19.8181C12.0921 19.8575 11.9545 19.8659 11.8205 19.8425Z" fill="white"/>
</svg>
