<svg width="44" height="35" viewBox="0 0 44 35" fill="none" xmlns="http://www.w3.org/2000/svg">
<path d="M38.6934 8.71316C38.7197 9.09289 38.7197 9.47261 38.7197 9.85584C38.7197 21.5329 29.8234 35 13.5563 35V34.993C8.75089 35 4.04534 33.6246 0 31.0313C0.698741 31.1152 1.40098 31.1572 2.10498 31.159C6.08727 31.1625 9.95574 29.8273 13.0887 27.3687C9.30428 27.297 5.9857 24.8314 4.82639 21.2319C6.15207 21.4874 7.51803 21.4349 8.81919 21.0796C4.6933 20.2467 1.72496 16.6244 1.72496 12.4177C1.72496 12.3792 1.72496 12.3424 1.72496 12.3057C2.95432 12.9899 4.33079 13.3696 5.73878 13.4116C1.8528 10.8165 0.65496 5.65085 3.00161 1.61211C7.49176 7.13301 14.1167 10.4893 21.2284 10.8445C20.5157 7.77522 21.4893 4.55892 23.787 2.40131C27.349 -0.944481 32.9511 -0.772992 36.2995 2.78453C38.2801 2.39431 40.1785 1.6681 41.9157 0.639169C41.2555 2.68479 39.8737 4.42243 38.0279 5.52661C39.7809 5.32012 41.4936 4.85115 43.1065 4.13545C41.9192 5.91334 40.4236 7.46199 38.6934 8.71316Z" fill="white"/>
</svg>
